<svg width="82" height="28" viewBox="0 0 82 28" fill="none" xmlns="http://www.w3.org/2000/svg">
<g id="Google_2015_logo 1">
<path id="Vector" d="M34.8952 14.2235C34.8952 18.0733 31.8835 20.9101 28.1875 20.9101C24.4914 20.9101 21.4797 18.0733 21.4797 14.2235C21.4797 10.3466 24.4914 7.53687 28.1875 7.53687C31.8835 7.53687 34.8952 10.3466 34.8952 14.2235ZM31.9589 14.2235C31.9589 11.8177 30.2133 10.1717 28.1875 10.1717C26.1616 10.1717 24.4161 11.8177 24.4161 14.2235C24.4161 16.6051 26.1616 18.2752 28.1875 18.2752C30.2133 18.2752 31.9589 16.6021 31.9589 14.2235Z" fill="#EA4335"/>
<path id="Vector_2" d="M49.3658 14.2235C49.3658 18.0733 46.3541 20.9101 42.658 20.9101C38.962 20.9101 35.9503 18.0733 35.9503 14.2235C35.9503 10.3496 38.962 7.53687 42.658 7.53687C46.3541 7.53687 49.3658 10.3466 49.3658 14.2235ZM46.4294 14.2235C46.4294 11.8177 44.6839 10.1717 42.658 10.1717C40.6322 10.1717 38.8866 11.8177 38.8866 14.2235C38.8866 16.6051 40.6322 18.2752 42.658 18.2752C44.6839 18.2752 46.4294 16.6021 46.4294 14.2235Z" fill="#FBBC05"/>
<path id="Vector_3" d="M63.2334 7.94084V19.9454C63.2334 24.8835 60.3212 26.9003 56.8784 26.9003C53.6376 26.9003 51.6871 24.7327 50.9515 22.9601L53.508 21.8959C53.9632 22.9842 55.0787 24.2685 56.8754 24.2685C59.0792 24.2685 60.4448 22.9088 60.4448 20.3494V19.3877H60.3423C59.6851 20.1986 58.419 20.9071 56.8212 20.9071C53.4779 20.9071 50.4149 17.9949 50.4149 14.2476C50.4149 10.4732 53.4779 7.53687 56.8212 7.53687C58.4159 7.53687 59.6821 8.24532 60.3423 9.03216H60.4448V7.94385H63.2334V7.94084ZM60.6529 14.2476C60.6529 11.8931 59.0822 10.1717 57.0834 10.1717C55.0576 10.1717 53.3603 11.8931 53.3603 14.2476C53.3603 16.578 55.0576 18.2752 57.0834 18.2752C59.0822 18.2752 60.6529 16.578 60.6529 14.2476Z" fill="#4285F4"/>
<path id="Vector_4" d="M67.8309 0.904297V20.4999H64.9669V0.904297H67.8309Z" fill="#34A853"/>
<path id="Vector_5" d="M78.9913 16.4241L81.2704 17.9435C80.5348 19.0318 78.7622 20.9069 75.6992 20.9069C71.9007 20.9069 69.0638 17.9706 69.0638 14.2203C69.0638 10.2439 71.9248 7.53369 75.3706 7.53369C78.8405 7.53369 80.5378 10.2952 81.0925 11.7874L81.397 12.5471L72.4584 16.2492C73.1427 17.5908 74.2069 18.2751 75.6992 18.2751C77.1945 18.2751 78.2316 17.5395 78.9913 16.4241ZM71.976 14.0183L77.9512 11.5372C77.6226 10.7021 76.6338 10.1203 75.4701 10.1203C73.9778 10.1203 71.9007 11.4377 71.976 14.0183Z" fill="#EA4335"/>
<path id="Vector_6" d="M10.6389 12.4838V9.64697H20.1985C20.292 10.1414 20.3402 10.7262 20.3402 11.3593C20.3402 13.4877 19.7584 16.1195 17.8832 17.9947C16.0593 19.894 13.729 20.9069 10.6419 20.9069C4.91999 20.9069 0.108521 16.2462 0.108521 10.5242C0.108521 4.80234 4.91999 0.141602 10.6419 0.141602C13.8073 0.141602 16.0623 1.38366 17.7566 3.00256L15.7548 5.00432C14.5399 3.86476 12.8939 2.97844 10.6389 2.97844C6.46051 2.97844 3.19256 6.34587 3.19256 10.5242C3.19256 14.7026 6.46051 18.0701 10.6389 18.0701C13.3491 18.0701 14.8926 16.9817 15.8815 15.9929C16.6834 15.191 17.2109 14.0454 17.419 12.4808L10.6389 12.4838Z" fill="#4285F4"/>
</g>
</svg>
