<svg width="237" height="53" viewBox="0 0 237 53" fill="none" xmlns="http://www.w3.org/2000/svg">
<g clip-path="url(#clip0_1_98)">
<path d="M52.8853 14.7615H61.6701C66.7267 14.7615 71.3031 16.5297 71.3031 22.3302C71.3031 28.8989 66.3986 30.083 60.8621 30.083H57.5417V40.8921H52.8933V14.7615H52.8853ZM60.342 26.0906C62.9983 26.0906 66.4306 25.9466 66.4306 22.4022C66.4306 19.1939 63.3663 18.7459 60.8541 18.7459H57.5337V26.0906H60.342Z" fill="white"/>
<path d="M73.1833 23.1705H77.6078V25.9788H77.6798C78.6399 23.9466 80.5921 22.7305 82.9203 22.7305C83.4724 22.7305 83.9924 22.8425 84.5045 22.9865V27.2669C83.7684 27.0829 83.0644 26.9389 82.3683 26.9389C78.1999 26.9389 77.6078 30.4432 77.6078 31.4033V40.8843H73.1833V23.1705Z" fill="white"/>
<path d="M88.5768 33.5794C88.8728 36.2036 90.865 37.7878 93.3373 37.7878C95.5535 37.7878 96.9936 36.7557 98.0978 35.3876L101.274 37.7878C99.2099 40.3321 96.5856 41.3322 93.7853 41.3322C88.4328 41.3322 84.1523 37.6038 84.1523 32.0352C84.1523 26.4667 88.4328 22.7383 93.7853 22.7383C98.7298 22.7383 102.09 26.2106 102.09 32.3713V33.5874H88.5848L88.5768 33.5794ZM97.6577 30.259C97.6177 27.6748 95.9215 26.0506 93.1533 26.0506C90.537 26.0506 88.9128 27.7148 88.5768 30.259H97.6577Z" fill="white"/>
<path d="M116.468 28.4909C115.436 27.4188 114.291 26.7227 113.107 26.7227C109.859 26.7227 107.899 29.2669 107.899 32.0352C107.899 34.8035 109.859 37.3478 113.107 37.3478C114.475 37.3478 115.724 36.7557 116.54 35.6836L119.492 38.8599C117.684 40.6681 114.659 41.3322 113.107 41.3322C107.755 41.3322 103.474 37.6038 103.474 32.0352C103.474 26.4667 107.755 22.7383 113.107 22.7383C115.356 22.7383 117.828 23.5464 119.524 25.4346L116.46 28.4989L116.468 28.4909Z" fill="white"/>
<path d="M122.564 14.4976C124.189 14.4976 125.445 15.6417 125.445 17.1538C125.445 18.666 124.189 19.8101 122.564 19.8101C120.94 19.8101 119.756 18.554 119.756 17.1538C119.756 15.7537 120.94 14.4976 122.564 14.4976ZM120.388 23.1704H124.813V40.8842H120.388V23.1704Z" fill="white"/>
<path d="M137.51 28.083C136.662 26.8988 135.558 26.2748 134.045 26.2748C132.861 26.2748 131.461 26.8268 131.461 28.155C131.461 31.3313 141.022 28.747 141.022 35.6437C141.022 39.8521 136.998 41.3243 133.381 41.3243C130.653 41.3243 128.293 40.6202 126.485 38.596L129.437 35.8277C130.581 37.0839 131.765 38.004 133.645 38.004C134.933 38.004 136.598 37.3799 136.598 35.9718C136.598 32.3154 127.037 35.1957 127.037 28.443C127.037 24.4906 130.581 22.7224 134.157 22.7224C136.518 22.7224 139.03 23.4585 140.47 25.4187L137.518 28.075L137.51 28.083Z" fill="white"/>
<path d="M144.847 14.4976C146.471 14.4976 147.727 15.6417 147.727 17.1538C147.727 18.666 146.471 19.8101 144.847 19.8101C143.222 19.8101 142.038 18.554 142.038 17.1538C142.038 15.7537 143.222 14.4976 144.847 14.4976ZM142.67 23.1704H147.095V40.8842H142.67V23.1704Z" fill="white"/>
<path d="M159.096 22.7305C164.449 22.7305 168.729 26.4588 168.729 32.0274C168.729 37.596 164.449 41.3244 159.096 41.3244C153.744 41.3244 149.463 37.596 149.463 32.0274C149.463 26.4588 153.744 22.7305 159.096 22.7305ZM159.096 37.3479C162.344 37.3479 164.297 34.8037 164.297 32.0354C164.297 29.2671 162.344 26.7229 159.096 26.7229C155.848 26.7229 153.888 29.2671 153.888 32.0354C153.888 34.8037 155.848 37.3479 159.096 37.3479Z" fill="white"/>
<path d="M171.009 23.1705H175.218V26.0108H175.29C176.106 24.2426 177.762 22.7305 180.714 22.7305C185.475 22.7305 187.171 26.0908 187.171 29.7072V40.8923H182.746V31.9234C182.746 29.9712 182.602 26.7229 179.498 26.7229C176.586 26.7229 175.442 28.8591 175.442 31.2273V40.8923H171.009V23.1705Z" fill="white"/>
<path d="M198.572 40.8841H195.916V17.1937H187.171V14.7615H207.317V17.1937H198.572V40.8841Z" fill="white"/>
<path d="M215.63 30.2911V29.8511C215.63 26.8588 214.19 25.3866 211.197 25.3866C209.165 25.3866 207.397 26.0907 205.917 27.4188L204.445 25.6827C206.029 24.0585 208.501 23.1704 211.749 23.1704C214.998 23.1704 218.062 25.0906 218.062 29.299V37.0118C218.062 38.3399 218.206 39.9641 218.358 40.8842H215.998C215.846 40.0361 215.774 39.004 215.774 38.0759H215.702C214.302 40.3642 212.381 41.3242 209.613 41.3242C206.549 41.3242 203.668 39.6281 203.668 36.2677C203.668 30.6592 210.277 30.2911 214.406 30.2911H215.622H215.63ZM214.374 32.2833C211.901 32.2833 206.333 32.4674 206.333 35.9397C206.333 38.2279 208.437 39.116 210.389 39.116C213.933 39.116 215.63 36.6038 215.63 33.5475V32.2913H214.374V32.2833Z" fill="white"/>
<path d="M226.335 31.6594L220.062 23.6106H223.383L228.183 30.0673L232.76 23.6106H235.784L229.767 31.6594L237 40.8843H233.68L227.887 33.3156L222.31 40.8843H219.214L226.335 31.6594Z" fill="white"/>
<path d="M12.1773 14.5615L15.2337 12.8013C16.2418 12.2172 16.8658 11.1451 16.8658 9.977V1.0561C16.8658 0.248015 15.9937 -0.256036 15.2897 0.144004L1.24024 8.24883C0.488161 8.68887 0.0161133 9.49695 0.0161133 10.369V26.5867C0.0161133 27.3948 0.888202 27.8988 1.59227 27.4988L9.32106 23.0343C10.3292 22.4503 10.9532 21.3782 10.9532 20.21V16.6817C10.9532 15.8096 11.4173 15.0015 12.1773 14.5615Z" fill="white"/>
<path d="M17.4498 27.9309L14.3935 26.1707C13.3854 25.5867 12.1453 25.5867 11.1291 26.1707L3.40037 30.6352C2.6963 31.0432 2.6963 32.0513 3.40037 32.4513L17.4418 40.5562C18.2019 40.9962 19.13 40.9962 19.89 40.5562L33.9315 32.4513C34.6355 32.0433 34.6355 31.0352 33.9315 30.6352L26.2027 26.1707C25.1946 25.5867 23.9544 25.5867 22.9383 26.1707L19.882 27.9309C19.122 28.3709 18.1939 28.3709 17.4338 27.9309H17.4498Z" fill="#00AEEF"/>
<path d="M0 36.4918V51.0773C0 51.8854 0.872088 52.3894 1.57616 51.9894L9.71298 47.2929C10.4731 46.8529 10.9371 46.0528 10.9371 45.1727V42.3964C10.9371 41.5243 10.4731 40.7162 9.71298 40.2762L1.57616 35.5797C0.872088 35.1717 0 35.6837 0 36.4918Z" fill="white"/>
<path d="M26.3948 17.0657V20.21C26.3948 21.3782 27.0189 22.4503 28.027 23.0343L35.7557 27.4988C36.4598 27.9068 37.3319 27.3948 37.3319 26.5867V10.7531C37.3319 10.201 37.1799 9.66497 36.9159 9.20093L25.9788 15.5136C26.2508 15.9776 26.3948 16.5137 26.3948 17.0657Z" fill="#93D500"/>
<path d="M35.7717 8.05672L22.0583 0.143918C21.3543 -0.264123 20.4822 0.247929 20.4822 1.05601V9.97691C20.4822 11.145 21.1062 12.2171 22.1143 12.8012L24.8346 14.3694C25.3147 14.6494 25.7067 15.0414 25.9707 15.5055L36.9078 9.19283C36.6358 8.72879 36.2518 8.32875 35.7717 8.05672Z" fill="#61A60E"/>
</g>
<defs>
<clipPath id="clip0_1_98">
<rect width="237" height="52.1253" fill="white"/>
</clipPath>
</defs>
</svg>
